<?xml version="1.0" standalone="no"?>
<!DOCTYPE svg PUBLIC "-//W3C//DTD SVG 1.1//EN" "http://www.w3.org/Graphics/SVG/1.1/DTD/svg11.dtd" >
<svg xmlns="http://www.w3.org/2000/svg">
<metadata>Generated by IcoMoon</metadata>
<defs>
<font id="icomoon" horiz-adv-x="1024">
<font-face units-per-em="1024" ascent="877.8572825024438" descent="-146.14271749755622" />
<missing-glyph horiz-adv-x="1024" />
<glyph unicode="&#x20;" horiz-adv-x="256.25024437927664" d="" />
<glyph unicode="&#xe601;" glyph-name="qq" d="M934.358 206.496c-18.802 109.051-97.769 180.499-97.769 180.499 11.28 99.018-30.085 116.575-30.085 116.575-8.71 306.349-272.601 300.985-278.142 300.84-5.547 0.145-269.474 5.509-278.145-300.842 0 0-41.365-17.556-30.084-116.575 0 0-78.972-71.448-97.772-180.499 0 0-10.044-184.263 90.247-22.565 0 0 22.566-61.404 63.93-116.569 0 0-73.969-25.086-67.687-90.253 0 0-2.519-72.69 157.939-67.691 0 0 112.812 8.765 146.659 56.405h29.824c33.842-47.643 146.657-56.405 146.657-56.405 160.419-4.999 157.936 67.691 157.936 67.691 6.244 65.167-67.686 90.253-67.686 90.253 41.364 55.163 63.923 116.569 63.923 116.569 100.254-161.695 90.253 22.567 90.253 22.567v0z" />
<glyph unicode="&#xe618;" glyph-name="BEECHAT" d="M515.503 786.825c-243.538 0-440.931-197.393-440.931-440.931 0-81.079 21.921-156.953 60.059-222.117v-0.2l-65.864-233.528 238.133 67.166c62.061-33.433 133.030-52.351 208.504-52.351 243.538 0 440.931 197.393 440.931 440.931 0.1 243.738-197.393 441.031-440.83 441.031zM515.503-24.968c-72.571 0-140.037 20.82-197.193 56.856l-145.142-40.54 36.335 144.841c-41.040 59.758-65.064 131.929-65.064 209.805 0 204.8 166.062 370.862 370.862 370.862s370.862-166.062 370.862-370.862-165.862-370.962-370.662-370.962zM681.465 301.851c-16.716 46.646-67.766 63.262-67.766 63.262 8.809 2.903 33.733 26.426 39.238 36.235 5.505 9.709 14.714 47.546-8.809 79.077-23.523 31.631-73.171 36.235-73.171 36.235v59.758h-36.235v-57.356h-62.661v57.356h-35.835v-60.96l-80.479-1.702v-27.327h24.324c30.73 0 35.835-6.707 35.835-6.707v-280.574c0-13.113-40.74-15.916-40.74-15.916s-14.314 3.503-14.714-10.51c-0.5-14.014 10.010-15.615 10.010-15.615h65.364v-52.952h36.636v53.953h62.361v-53.953h36.736v57.056c6.707 0 47.146 8.408 74.973 29.929 27.327 20.82 51.951 63.862 34.934 110.708zM481.871 488.834s76.675 8.108 102.3-21.621c25.725-29.629 0-83.482-24.023-91.79-24.023-8.408-27.827-7.607-43.042-8.108-15.015-0.5-35.435 0-35.435 0l0.2 121.519zM617.903 263.013c-2.102-38.638-27.927-72.371-67.966-74.473-39.939-2.102-61.46 9.309-67.966 21.021v125.823s51.851 4.404 80.479-2.402c28.628-6.807 57.756-31.13 55.454-69.968z" />
<glyph unicode="&#xe643;" glyph-name="weibo" d="M668.378 622.692c44.198 0 255.724 11.478 217.050-192.579-5.405-22.368-9.468-56.63 17.063-63.877 24.172-6.068 39.050 19.15 45.711 38.342 3.192 22.343 101.036 314.779-276.277 290.464-12.058-2.127-38.823-12.43-39.012-34.6-0.189-22.175 23.471-36.611 35.466-37.75zM680.258 534.151c7.058 0.828 117.025 20.122 108.022-95.844 1.636-10.535-5.826-28.595 9.002-32.301 14.826-3.707 20.651 8.472 22.24 19.592s27.243 161.965-137.5 144.559c-12.463-1.372-20.828-8.826-19.416-19.769s10.594-17.066 17.652-16.238zM726.895 353.508c0 0-44.332-9.576-23.408 23.408 32.994 64.515-20.612 170.359-159.595 100.014-47.878-25.535-47.878-7.447-46.282 24.472 4.305 174.255-318.658 50.007-410.16-176.506-51.594-137.491 31.033-256.311 158.853-308.134 311.949-111.383 539.109 72.883 577.848 192.049 51.635 179.016-97.257 144.699-97.257 144.699zM427.713 58.017c-147.674-20.312-278.572 44.546-292.371 144.862s94.73 198.107 242.403 218.419 278.572-44.546 292.371-144.862-94.729-198.107-242.403-218.419zM540.277 267.094c-11.719 61.115-83.644 98.687-160.648 83.921s-129.929-76.279-118.21-137.393 83.644-98.687 160.648-83.921 129.929 76.279 118.21 137.393zM370.463 186.070c-26.588 0-48.142 18.344-48.142 40.972s21.554 40.972 48.142 40.972c26.588 0 48.142-18.344 48.142-40.972s-21.554-40.972-48.142-40.972zM449.335 241.383c-9.923 0-20.015 11.924-20.015 26.632s10.093 26.632 20.015 26.632c9.923 0 20.015-11.924 20.015-26.632s-10.093-26.632-20.015-26.632z" />
<glyph unicode="&#xe645;" glyph-name="facebook" d="M911.965 785.924c12.991 0 24.727-4.84 35.208-14.609 10.481-9.679 15.767-21.064 15.767-33.97v-796.714c0-12.997-5.285-24.29-15.767-33.97-10.571-9.77-22.308-14.609-35.208-14.609h-228.179v344.894h116.554l17.022 136.057h-133.486v88.823c0 44.366 22.666 66.595 67.997 66.595h70.416v116.786c-24.279 4.751-59.038 7.171-104.37 7.171-51.781 0-93.439-15.775-125.064-47.324-31.714-31.64-47.48-75.827-47.48-132.472v-99.577h-116.555v-136.058h116.554v-344.894h-429.751c-12.99 0-24.279 4.84-33.953 14.609-9.767 9.679-14.603 20.973-14.603 33.97v796.714c0 12.907 4.838 24.29 14.602 33.97 9.676 9.679 21.054 14.609 33.955 14.609h796.343z" />
<glyph unicode="&#xe648;" glyph-name="telegram" d="M909.58 700.984c-1.372 1.092-3.132 1.753-5.045 1.753-1.351 0-2.627-0.329-3.749-0.913l0.045 0.021-788.815-400.493c-2.653-1.349-4.437-4.059-4.437-7.185 0-3.591 2.355-6.631 5.605-7.661l0.057-0.016 264.056-83.332c0.735-0.238 1.581-0.375 2.458-0.375 2.105 0 4.027 0.79 5.483 2.089l-0.008-0.007 365.29 326.745-291.685-342.73c-1.186-1.394-1.907-3.215-1.907-5.205 0-3.635 2.407-6.708 5.715-7.711l0.057-0.015 293.002-88.612c0.696-0.224 1.496-0.353 2.326-0.353 0.004 0 0.007 0 0.011 0h-0.001c1.482 0.020 2.869 0.41 4.077 1.083l-0.044-0.022c1.913 1.107 3.315 2.917 3.863 5.069l0.012 0.056 146.493 599.626c0.137 0.558 0.216 1.197 0.216 1.855 0 2.563-1.195 4.846-3.059 6.322l-0.017 0.013zM548.417 112.29l-81.016 24.748c-0.704 0.22-1.513 0.347-2.353 0.347-4.459 0-8.082-3.585-8.143-8.029v-151.742c0.033-4.47 3.664-8.081 8.138-8.081 2.868 0 5.388 1.482 6.838 3.724l0.019 0.032 80.975 126.992c0.795 1.223 1.267 2.72 1.267 4.326 0 3.611-2.387 6.664-5.67 7.666l-0.057 0.015z" />
<glyph unicode="&#xe649;" glyph-name="email" d="M512.513 219.836l415.954 346.564c-2.254 0.409-4.279 1.35-6.617 1.35h-818.674c-2.29 0-4.327-0.928-6.581-1.35l415.918-346.564zM959.071 530.53c0 3.905-1.073 7.521-2.254 11.077l-294.857-245.764 295.302-295.362c0.76 2.977 1.808 5.846 1.808 9.064v520.986zM68.221 541.643c-1.145-3.579-2.29-7.148-2.29-11.113v-520.974c0-3.254 1.121-6.111 1.856-9.088l295.398 295.386-294.965 245.788zM633.201 271.929l-108.804-90.628c-3.411-2.905-7.629-4.303-11.885-4.303-4.218 0-8.461 1.398-11.909 4.303l-108.707 90.579-297.725-297.713c2.929-0.772 5.834-1.844 9.004-1.844h818.686c3.23 0 6.135 1.061 9.124 1.844l-297.786 297.762z" />
<glyph unicode="&#xe652;" glyph-name="twitter" d="M920.658 531.68c0 9.614-0.184 19.122-0.61 28.563 41.101 30.626 76.762 68.962 104.967 112.831-35.201-16.271-76.044-27.934-118.933-32.875l-1.869-0.175c43.444 26.735 76.762 69.492 92.505 120.802-40.678-24.67-85.674-42.307-133.514-51.497-38.332 43.618-93.035 71.399-153.509 72.432-116.141 1.92-210.29-96.226-210.29-219.187 0-17.478 1.828-34.428 5.456-50.796-174.894 11.255-329.872 102.29-433.54 239.527-18.089-32.88-28.467-71.307-28.467-112.488 0-77.888 37.127-147.114 93.538-187.964-34.535 1.563-66.884 12.022-95.259 29.17v-2.86c0-108.858 72.511-200.066 168.725-221.346-17.638-5.017-36.242-7.627-55.377-7.534-14.046 0.075-27.684 1.649-40.814 4.568l1.275-0.238c26.735-89.208 104.435-154.382 196.423-156.554-71.994-59.694-162.684-95.351-261.147-95.102-16.977 0-33.753 1.139-50.2 3.204 93.102-63.863 203.617-101.059 322.42-101.059 386.728-0.092 598.22 336.521 598.22 628.577z" />
<glyph unicode="&#xe67b;" glyph-name="qqgroup" d="M820.001 193.962s-19.988 79.438-59.45 125.563c0 0 19.988 39.463-13.325 95.838 0 0-9.738 234.725-234.725 234.725s-234.213-234.725-234.213-234.725c-36.388-56.375-13.325-95.838-13.325-95.838-39.463-46.125-59.45-125.563-59.45-125.563-19.988-95.838 16.4-112.238 23.063-115.825 6.663-3.075 16.4 13.325 23.063 19.988 3.075 6.663 13.325 29.725 16.4 29.725s6.663-9.738 6.663-9.738c13.325-49.713 46.125-82.513 46.125-82.513-36.388-13.325-56.375-36.388-56.375-36.388s-39.463-63.038 66.113-72.775c105.575-13.325 175.275 26.65 175.275 26.65h16.4s69.188-36.388 175.275-26.65c105.575 13.325 66.113 72.775 66.113 72.775s-23.063 23.063-52.788 36.388c0 0 29.725 36.388 46.125 82.513 0 0 3.075 13.325 6.663 9.738 3.075 0 9.738-23.063 16.4-29.725 3.075-6.663 16.4-23.063 23.063-19.988 7.175 3.075 36.9 19.988 16.913 115.825zM1018.338 326.187s-19.988 79.438-59.45 125.563c0 0 19.988 39.463-13.325 95.838 0 0-9.738 234.725-234.725 234.725-102.5 0-158.875-46.125-191.675-98.913 191.675-3.075 254.713-165.025 260.863-257.788 23.063-39.463 23.063-72.775 16.4-98.913 36.388-52.788 52.788-122.488 52.788-125.563v-3.075c19.988-89.175-6.663-128.638-29.725-141.963 19.988 0 43.050-3.075 69.188 0 105.575 13.325 66.113 72.775 66.113 72.775s-23.063 23.063-52.788 36.388c0 0 29.725 36.388 46.125 82.513 0 0 3.075 13.325 6.663 9.738 3.075 0 9.738-23.063 16.4-29.725 3.075-6.663 16.4-23.063 23.063-19.988 7.688 2.563 44.075 22.55 24.088 118.388zM172.2 200.112c0 3.075 19.988 72.775 56.375 125.563-6.663 23.063-3.075 59.45 16.4 98.913 6.663 93.275 69.7 255.225 261.375 258.3-32.8 52.788-89.175 98.913-191.675 98.913-228.063 0-234.725-234.725-234.725-234.725-36.388-55.863-13.325-95.325-13.325-95.325-39.463-46.125-59.45-125.563-59.45-125.563-19.988-95.838 16.4-112.238 23.063-115.825 6.663-3.075 16.4 13.325 23.063 19.988 3.075 6.663 13.325 29.725 16.4 29.725s6.663-9.738 6.663-9.738c13.325-49.713 46.125-82.513 46.125-82.513-36.388-13.325-56.375-36.388-56.375-36.388s-39.463-63.038 66.113-72.775c23.063-3.075 46.125-3.075 66.113-3.075-19.475 15.888-45.613 52.275-26.138 144.525z" />
<glyph unicode="&#xe70b;" glyph-name="weixin" d="M714.636 503.41c5.151 0 10.306 0 14.889-0.564-31.493 143.782-181.522 252.042-361.897 252.042-202.709 0-367.627-138.145-367.627-308.428 0-99.236 56.119-187.759 143.73-244.145l-36.649-106.569 121.97 65.969c41.487-14.643 89.328-23.109 139.145-23.119h0.004c9.738 0 18.895 0.564 28.059 1.127-10.311 27.075-16.036 55.263-16.036 85.147 0 153.929 149.455 278.539 334.412 278.539zM494.747 602.65c29.776 0 54.402-23.683 54.402-53.566 0-29.321-24.051-53.566-54.402-53.566-29.776 0-54.402 23.677-54.402 53.566 0.005 29.321 24.631 53.566 54.402 53.566zM242.224 495.517c-29.776 0-54.402 23.677-54.402 53.566 0 29.321 24.051 53.566 54.402 53.566s54.402-23.683 54.402-53.566c-0.005-29.321-24.626-53.566-54.402-53.566zM1025.001 224.307c0 143.218-139.149 259.366-310.365 259.366s-310.365-116.153-310.365-259.366c0-143.218 139.149-259.366 310.365-259.366 36.075 0 70.433 5.074 102.5 14.657l105.933-57.508-30.919 89.652c80.745 47.36 132.851 125.168 132.851 212.565zM617.292 261.525c-24.051 0-43.522 19.168-43.522 42.85s19.47 42.85 43.522 42.85c24.046 0 43.516-19.168 43.516-42.85s-19.465-42.85-43.516-42.85zM820.001 261.525c-24.051 0-43.522 19.168-43.522 42.85s19.47 42.85 43.522 42.85c24.051 0 43.522-19.168 43.522-42.85s-19.47-42.85-43.522-42.85z" />
<glyph unicode="&#xe900;" d="M934.4 349.44c10.752 10.24 10.752 27.136 0 37.376l-62.976 56.832c-7.168 6.656-10.24 16.896-6.656 26.112l26.112 80.384c4.608 14.336-4.096 29.184-18.432 32.256l-82.944 17.408c-9.728 2.048-17.408 9.728-19.456 19.456l-17.408 82.432c-3.072 14.336-18.432 23.040-32.256 18.432l-80.384-26.112c-9.216-3.072-19.968-0.512-26.112 6.656l-56.832 63.488c-10.24 10.752-27.136 10.752-37.376 0l-57.344-62.464c-6.656-7.168-16.896-10.24-26.112-6.656l-80.384 26.112c-14.336 4.608-29.184-4.096-32.256-18.432l-17.408-82.944c-2.048-9.728-9.728-17.408-19.456-19.456l-82.432-16.896c-14.336-3.072-23.040-18.432-18.432-32.256l25.088-81.408c3.072-9.216 0.512-19.968-6.656-26.112l-64-56.832c-10.752-10.24-10.752-27.136 0-37.376l62.976-56.832c7.168-6.656 10.24-16.896 6.656-26.112l-26.112-80.384c-4.608-14.336 4.096-29.184 18.432-32.256l82.944-17.408c9.728-2.048 17.408-9.728 19.456-19.456l17.408-82.944c3.072-14.336 18.432-23.040 32.256-18.432l80.384 26.112c9.216 3.072 19.968 0.512 26.112-6.656l56.832-62.976c10.24-10.752 27.136-10.752 37.376 0l56.832 62.976c6.656 7.168 16.896 10.24 26.112 6.656l80.384-26.112c14.336-4.608 29.184 4.096 32.256 18.432l17.408 82.944c2.048 9.728 9.728 17.408 19.456 19.456l82.944 17.408c14.336 3.072 23.040 18.432 18.432 32.256l-26.112 80.384c-3.072 9.216-0.512 19.968 6.656 26.112l65.024 56.832z" />
<glyph unicode="&#xe901;" d="M764.928 459.52l-270.336-270.336c-7.168-7.168-16.896-10.752-26.624-10.752s-19.456 3.584-26.624 10.752l-154.624 154.624c-14.336 14.336-14.336 38.912 0 53.248s38.912 14.336 53.248 0l128-128 243.712 243.712c14.336 14.336 38.912 14.336 53.248 0 14.848-14.336 14.848-38.4 0-53.248z" />
<glyph unicode="&#xe902;" d="M934.4 349.44c10.752 10.24 10.752 27.136 0 37.376l-62.976 56.832c-7.168 6.656-10.24 16.896-6.656 26.112l26.112 80.384c4.608 14.336-4.096 29.184-18.432 32.256l-82.944 17.408c-9.728 2.048-17.408 9.728-19.456 19.456l-17.408 82.432c-3.072 14.336-18.432 23.040-32.256 18.432l-80.384-26.112c-9.216-3.072-19.968-0.512-26.112 6.656l-56.832 63.488c-10.24 10.752-27.136 10.752-37.376 0l-57.344-62.464c-6.656-7.168-16.896-10.24-26.112-6.656l-80.384 26.112c-14.336 4.608-29.184-4.096-32.256-18.432l-17.408-82.944c-2.048-9.728-9.728-17.408-19.456-19.456l-82.432-16.896c-14.336-3.072-23.040-18.432-18.432-32.256l25.088-81.408c3.072-9.216 0.512-19.968-6.656-26.112l-64-56.832c-10.752-10.24-10.752-27.136 0-37.376l62.976-56.832c7.168-6.656 10.24-16.896 6.656-26.112l-26.112-80.384c-4.608-14.336 4.096-29.184 18.432-32.256l82.944-17.408c9.728-2.048 17.408-9.728 19.456-19.456l17.408-82.944c3.072-14.336 18.432-23.040 32.256-18.432l80.384 26.112c9.216 3.072 19.968 0.512 26.112-6.656l56.832-62.976c10.24-10.752 27.136-10.752 37.376 0l56.832 62.976c6.656 7.168 16.896 10.24 26.112 6.656l80.384-26.112c14.336-4.608 29.184 4.096 32.256 18.432l17.408 82.944c2.048 9.728 9.728 17.408 19.456 19.456l82.944 17.408c14.336 3.072 23.040 18.432 18.432 32.256l-26.112 80.384c-3.072 9.216-0.512 19.968 6.656 26.112l65.024 56.832z" />
<glyph unicode="&#xe903;" d="M764.928 459.52l-270.336-270.336c-7.168-7.168-16.896-10.752-26.624-10.752s-19.456 3.584-26.624 10.752l-154.624 154.624c-14.336 14.336-14.336 38.912 0 53.248s38.912 14.336 53.248 0l128-128 243.712 243.712c14.336 14.336 38.912 14.336 53.248 0 14.848-14.336 14.848-38.4 0-53.248z" />
<glyph unicode="&#xe904;" glyph-name="theme" d="M858.438 581.925c-9.609 12.813-32.031 16.016-44.844 6.406s-16.016-32.031-6.406-44.844c38.438-54.453 57.656-121.719 57.656-201.797 0-48.047-9.609-92.891-28.828-134.531-12.813 3.203-22.422 3.203-35.234 3.203-86.484 0-156.953-64.063-156.953-140.938 0-12.813 3.203-28.828 6.406-41.641-38.438-16.016-76.875-25.625-118.516-25.625-19.219 0-32.031-16.016-32.031-32.031s16.016-32.031 32.031-32.031c60.859 3.203 118.516 16.016 172.969 44.844 9.609 3.203 12.813 12.813 16.016 19.219 3.203 9.609 0 19.219-3.203 25.625-9.609 12.813-12.813 25.625-12.813 38.438 0 41.641 41.641 76.875 92.891 76.875 12.813 0 25.625-3.203 38.438-6.406 16.016-6.406 32.031 0 41.641 16.016 32.031 57.656 48.047 124.922 48.047 188.985 3.203 92.891-19.219 176.172-67.266 240.235zM185.781 149.502c16.016 9.609 22.422 28.828 12.813 41.641-25.625 51.25-38.438 99.297-38.438 150.547 0 188.985 153.75 342.735 342.735 342.735 22.422 0 51.25-3.203 67.266-6.406s35.234 9.609 38.438 25.625-9.609 35.234-25.625 38.438c-22.422 3.203-54.453 6.406-80.078 6.406-224.219 0-406.797-182.578-406.797-406.797 0-64.063 12.813-118.516 44.844-179.375 6.406-9.609 19.219-16.016 28.828-16.016 6.406 0 9.609 0 16.016 3.203zM224.219 418.565c0-26.536 21.511-48.047 48.047-48.047s48.047 21.511 48.047 48.047v0c0 26.536-21.511 48.047-48.047 48.047s-48.047-21.511-48.047-48.047v0zM320.313 562.706c0-17.69 14.341-32.031 32.031-32.031s32.031 14.341 32.031 32.031v0c0 17.69-14.341 32.031-32.031 32.031s-32.031-14.341-32.031-32.031v0zM525.313 146.299l297.891 557.344c9.609 25.625 3.203 57.656-22.422 73.672s-57.656 12.813-76.875-12.813l-390.782-496.485s0-3.203-3.203-3.203c-9.609-16.016-12.813-35.234-9.609-51.25 0-3.203 3.203-6.406 3.203-9.609-41.641-3.203-102.5-25.625-115.313-89.688-9.609-44.844 3.203-67.266 9.609-83.281 0-3.203 3.203-6.406 3.203-3.203l-3.203-3.203c-16.016-22.422-32.031-25.625-32.031-25.625-12.813-3.203-22.422-12.813-25.625-25.625s3.203-25.625 12.813-32.031c32.031-22.422 89.688-51.25 144.141-51.25 41.641 0 83.281 16.016 118.516 54.453 54.453 64.063 44.844 160.156 44.844 166.563 19.219 6.406 35.234 19.219 44.844 35.234zM384.375 229.58l352.344 451.641-265.86-502.891c-3.203-3.203-6.406-6.406-6.406-3.203l-80.078 48.047v6.406zM387.578-13.857c-38.438-44.844-92.891-35.234-131.328-19.219 6.406 6.406 9.609 12.813 16.016 19.219 22.422 32.031 9.609 57.656 3.203 70.469-6.406 9.609-9.609 22.422-6.406 44.844 6.406 28.828 44.844 35.234 60.859 38.438l89.688-48.047c0-25.625-3.203-73.672-32.031-105.703z" />
<glyph unicode="&#xe905;" glyph-name="light" d="M511.988 62.762c-73.8 0-142.988 28.7-195.263 80.975s-80.975 121.463-80.975 195.263c0 73.8 28.7 142.988 80.975 195.263s121.463 80.975 195.263 80.975c73.8 0 142.988-28.7 195.263-80.975s80.975-121.463 80.975-195.263c0-73.8-28.7-142.988-80.975-195.263-52.275-51.763-121.975-80.975-195.263-80.975zM511.988 689.55c-12.3 0-22.55 10.25-22.55 22.55v88.663c0 12.3 10.25 22.55 22.55 22.55s22.55-10.25 22.55-22.55v-88.663c0-12.3-10.25-22.55-22.55-22.55zM511.988-144.801c-12.3 0-22.55 10.25-22.55 22.55v88.663c0 12.3 10.25 22.55 22.55 22.55s22.55-10.25 22.55-22.55v-88.663c0-12.3-10.25-22.55-22.55-22.55zM248.050 580.387c-6.15 0-11.788 2.563-15.888 6.663l-62.525 62.525c-8.713 8.713-8.713 23.063 0 31.775s23.063 8.713 31.775 0l62.525-62.525c8.713-8.713 8.713-23.063 0-31.775-4.1-4.613-9.738-6.663-15.888-6.663zM837.938-9.501c-6.15 0-11.788 2.563-15.888 6.663l-62.525 62.525c-8.713 8.713-8.713 23.063 0 31.775s23.063 8.713 31.775 0l62.525-62.525c8.713-8.713 8.713-23.063 0-31.775-4.1-4.613-9.738-6.663-15.888-6.663zM50.225 316.449c-12.3 0-22.55 10.25-22.55 22.55s10.25 22.55 22.55 22.55h88.663c12.3 0 22.55-10.25 22.55-22.55s-10.25-22.55-22.55-22.55h-88.663zM973.238 316.449h-88.663c-12.3 0-22.55 10.25-22.55 22.55s10.25 22.55 22.55 22.55h88.663c12.3 0 22.55-10.25 22.55-22.55s-10.25-22.55-22.55-22.55zM185.525-9.501c-6.15 0-11.788 2.563-15.888 6.663-8.713 8.713-8.713 23.063 0 31.775l62.525 62.525c8.713 8.713 23.063 8.713 31.775 0s8.713-23.063 0-31.775l-62.525-62.525c-4.1-4.613-10.25-7.175-15.888-6.663zM775.413 580.387c-6.15 0-11.788 2.563-15.888 6.663-8.713 8.713-8.713 23.063 0 31.775l62.525 62.525c8.713 8.713 23.063 8.713 31.775 0s8.713-23.063 0-31.775l-62.525-62.525c-4.1-4.613-9.738-6.663-15.888-6.663z" />
<glyph unicode="&#xe906;" glyph-name="dark" d="M830.452 160.118c-63.469-85.716-165.343-141.279-280.192-141.279-192.453 0-348.464 156.011-348.464 348.456 0 131.619 72.969 246.188 180.655 305.464 0.001-283.36 200.378-512.643 447.999-512.643v0z" />
<glyph unicode="&#xe907;" glyph-name="no-data" horiz-adv-x="1573" d="M157.195 150.973h21.195c5.888 0 10.009-4.71 10.009-10.597s-4.71-10.597-10.009-10.597h-21.195v-21.195c0-5.888-4.71-10.009-10.597-10.009s-10.597 4.71-10.597 10.009v21.195h-21.195c-5.888 0-10.009 4.71-10.009 10.597s4.71 10.597 10.009 10.597h21.195v21.195c0 5.888 4.71 10.009 10.597 10.009s10.597-4.71 10.597-10.009v-21.195zM1540.74 234.573v21.195c0 5.888-4.71 10.009-10.009 10.009-5.888 0-10.597-4.71-10.597-10.009v-21.195h-21.195c-5.888 0-10.597-4.71-10.009-10.597 0-5.888 4.71-10.597 10.009-10.597h21.195v-21.195c0-5.888 4.71-10.009 10.597-10.009s10.597 4.71 10.597 10.009v21.195h21.195c5.888 0 10.009 4.71 10.009 10.597s-4.71 10.597-10.009 10.597h-21.783zM778.907-110.43h-527.513c-5.299 0-10.597 2.355-14.718 5.888-4.121 4.121-5.888 9.42-5.888 14.718 0 11.774 9.42 20.606 21.195 20.606h94.788c-7.065 12.953-11.186 27.082-11.186 41.801v606.405c0 22.372 8.832 43.567 24.727 58.874 15.897 15.897 37.091 24.727 59.463 24.139h62.996v21.195c0 22.372 8.832 43.567 24.727 58.874 15.897 15.897 37.091 24.727 59.463 24.139h502.786c22.372 0 43.567-8.832 59.463-24.139 15.897-15.897 24.727-37.091 24.727-58.874v-606.405c0-14.718-4.121-28.848-11.186-41.801h115.982c11.774 0.589 21.195-8.242 21.783-20.018s-8.242-21.195-20.018-21.783h-253.159v-21.195c0-14.718-4.121-28.848-11.186-41.801h11.186c11.774 0 20.606-9.42 20.606-20.606s-9.42-20.606-20.606-20.606h-110.095c10.009-16.485 7.065-37.68-6.476-50.631-16.485-16.485-42.978-16.485-59.463 0l-52.398 51.221zM855.443-68.629h66.528c22.961 0 41.801 18.839 41.801 41.801v606.994c0 22.372-18.251 40.624-40.624 40.624h-505.73c-22.372 0-40.624-18.251-40.624-40.624v-606.994c0-22.961 18.839-41.801 41.801-41.801h317.921l-10.597 10.597c-10.597 10.597-14.718 25.904-11.186 40.624l-20.018 20.018c-61.818-45.922-148.363-36.502-198.407 21.783-50.043 57.696-47.099 144.83 7.065 198.995s141.887 57.696 200.172 7.065c58.286-50.043 67.705-137.177 21.195-198.407l20.018-20.018c14.718 4.121 30.026 0 40.624-10.597l70.060-70.060zM1006.162 36.168h62.996c22.961 0 41.801 18.839 41.801 41.801v605.817c0 22.961-18.839 41.801-41.801 41.801h-503.375c-22.961 0-41.801-18.839-41.801-41.801v-20.606h397.99c22.372 0 43.567-8.832 59.463-24.139 15.897-15.897 24.727-37.091 24.727-58.874v-543.998zM267.289 803.888h31.203c8.832 0 15.897-7.065 15.897-15.897s-7.065-15.897-15.897-15.897h-31.203v-31.203c0-8.832-7.065-15.897-15.897-15.897-4.121 0-8.242 1.767-11.186 4.71-2.944 3.532-4.71 7.653-4.71 11.774v31.203h-31.203c-4.121 0-8.242 1.767-11.186 4.71s-4.71 6.476-4.71 11.186c0 8.242 7.065 15.307 15.897 15.307h31.203v31.203c0 8.832 7.065 15.897 15.897 15.897s15.897-7.065 15.897-15.897v-31.203zM21.195-89.235c0 11.774 9.42 20.606 20.606 20.606h125.991c11.774 0 20.606-9.42 20.606-20.606 0-11.774-9.42-20.606-20.606-20.606h-125.991c-5.299 0-10.597 2.355-14.718 5.888s-5.888 8.832-5.888 14.718zM681.764 45.588c26.494 26.494 37.091 64.761 27.082 100.675s-38.268 64.173-74.181 73.593c-35.913 9.42-74.77-0.589-101.264-27.082-40.624-40.624-41.212-106.562-0.589-147.186l0.589-0.589c41.212-40.034 107.74-40.034 148.363 0.589zM460.985 537.776c0 11.774 9.42 21.195 21.195 20.606h230.199c11.774 0 21.195-9.42 21.195-20.606 0-11.774-9.42-21.195-21.195-20.606h-230.199c-5.299 0-10.597 2.355-14.718 5.888s-6.476 8.832-6.476 14.718zM460.985 432.98c0 11.774 9.42 21.195 20.606 21.195h335.584c11.774 0 20.606-9.42 20.606-20.606 0-11.774-9.42-20.606-20.606-20.606h-335.584c-5.299 0-10.597 2.355-14.718 5.888-3.532 3.532-5.888 8.832-5.888 14.13zM460.985 328.772c0 11.774 9.42 20.606 21.195 20.606h146.597c11.774 0 20.606-9.42 20.606-20.606 0-11.774-9.42-20.606-20.606-20.606h-146.597c-5.299 0-10.597 2.355-14.718 5.888s-6.476 8.832-6.476 14.718zM62.996 454.175c-22.372 0-42.978 11.774-54.164 31.203s-11.186 43.567 0 62.407c11.186 19.429 31.792 31.203 54.164 31.203 34.736 0 62.996-28.26 62.996-62.996s-28.26-61.818-62.996-61.818zM62.996 485.378c11.186 0 21.783 5.888 27.082 15.897 5.888 9.42 5.888 21.783 0 31.203s-15.897 15.897-27.082 15.897c-17.074 0-31.203-14.13-31.203-31.203-0.589-17.662 13.541-31.792 31.203-31.792zM1362.35 579.577c-34.736 0-62.996 28.26-62.996 62.407s28.26 62.407 62.996 62.407c34.736 0 62.996-28.26 62.996-62.407s-28.26-62.407-62.996-62.407zM1362.35 610.781c11.186 0 21.783 5.888 27.082 15.897 5.888 9.42 5.888 21.783 0 31.203s-15.897 15.897-27.082 15.897c-17.074 0-31.203-14.13-31.203-31.203 0-17.662 14.13-31.792 31.203-31.792z" />
<glyph unicode="&#xf005;" glyph-name="star" horiz-adv-x="952" d="M951.786 480.912q0-12.583-14.872-27.456l-207.632-202.484 49.191-285.993q0.572-4.004 0.572-11.44 0-12.012-6.006-20.306t-17.446-8.294q-10.868 0-22.879 6.864l-256.822 134.989-256.822-134.989q-12.583-6.864-22.879-6.864-12.012 0-18.018 8.294t-6.006 20.306q0 3.432 1.144 11.44l49.191 285.993-208.203 202.484q-14.3 15.444-14.3 27.456 0 21.164 32.031 26.312l287.137 41.755 128.697 260.254q10.868 23.452 28.027 23.452t28.027-23.452l128.697-260.254 287.137-41.755q32.031-5.148 32.031-26.312z" />
<glyph unicode="&#xf006;" glyph-name="star_empty" horiz-adv-x="952" d="M650.349 276.712l175.028 169.88-241.379 35.464-108.106 218.499-108.106-218.499-241.379-35.464 175.028-169.88-41.755-240.806 216.211 113.825 215.64-113.825zM951.786 480.912q0-12.583-14.872-27.456l-207.632-202.484 49.191-285.993q0.572-4.004 0.572-11.44 0-28.599-23.452-28.599-10.868 0-22.879 6.864l-256.822 134.989-256.822-134.989q-12.583-6.864-22.879-6.864-12.012 0-18.018 8.294t-6.006 20.306q0 3.432 1.144 11.44l49.191 285.993-208.203 202.484q-14.3 15.444-14.3 27.456 0 21.164 32.031 26.312l287.137 41.755 128.697 260.254q10.868 23.452 28.027 23.452t28.027-23.452l128.697-260.254 287.137-41.755q32.031-5.148 32.031-26.312z" />
<glyph unicode="&#xf007;" glyph-name="user" horiz-adv-x="732" d="M732.144 50.777q0-62.347-35.749-106.961t-86.084-44.615h-488.477q-50.335 0-86.084 44.615t-35.749 106.961q0 48.618 4.862 91.804t18.018 86.942 33.462 74.93 53.767 50.907 76.932 19.733q74.93-73.214 179.032-73.214t179.032 73.214q43.471 0 76.932-19.733t53.767-50.907 33.462-74.93 18.018-86.942 4.862-91.804zM585.715 558.13q0-90.946-64.349-155.295t-155.295-64.349-155.295 64.349-64.349 155.295 64.349 155.295 155.295 64.349 155.295-64.349 64.349-155.295z" />
<glyph unicode="&#xf013;" glyph-name="cog" d="M585.715 338.487q0 60.63-42.899 103.53t-103.53 42.899-103.53-42.899-42.899-103.53 42.899-103.53 103.53-42.899 103.53 42.899 42.899 103.53zM878.572 400.834v-126.981q0-6.864-4.575-13.156t-11.44-7.436l-105.817-16.016q-10.868-30.887-22.308-52.051 20.020-28.599 61.203-78.934 5.72-6.864 5.72-14.3t-5.148-13.156q-15.444-21.164-56.626-61.774t-53.767-40.611q-6.864 0-14.872 5.148l-78.934 61.774q-25.168-13.156-52.051-21.735-9.152-77.79-16.587-106.39-4.004-16.016-20.591-16.016h-126.981q-8.008 0-14.014 4.862t-6.577 12.298l-16.016 105.246q-28.027 9.152-51.479 21.164l-80.65-61.203q-5.72-5.148-14.3-5.148-8.008 0-14.3 6.292-72.070 65.207-94.378 96.094-4.004 5.72-4.004 13.156 0 6.864 4.575 13.156 8.579 12.012 29.171 38.037t30.887 40.325q-15.444 28.599-23.452 56.626l-104.673 15.444q-7.436 1.144-12.012 7.15t-4.575 13.442v126.981q0 6.864 4.575 13.156t10.868 7.436l106.39 16.016q8.008 26.312 22.308 52.622-22.879 32.603-61.203 78.934-5.72 6.864-5.72 13.727 0 5.72 5.148 13.156 14.872 20.591 56.341 61.489t54.053 40.897q7.436 0 14.872-5.72l78.934-61.203q25.168 13.156 52.051 21.735 9.152 77.79 16.587 106.39 4.004 16.016 20.591 16.016h126.981q8.008 0 14.014-4.862t6.577-12.298l16.016-105.246q28.027-9.152 51.479-21.164l81.222 61.203q5.148 5.148 13.727 5.148 7.436 0 14.3-5.72 73.786-68.066 94.378-97.238 4.004-4.575 4.004-12.583 0-6.864-4.575-13.156-8.579-12.012-29.171-38.037t-30.887-40.325q14.872-28.599 23.452-56.055l104.673-16.016q7.436-1.144 12.012-7.15t4.575-13.442z" />
<glyph unicode="&#xf014;" glyph-name="trash" horiz-adv-x="806" d="M292.857 430.005v-329.465q0-8.008-5.148-13.156t-13.156-5.148h-36.607q-8.008 0-13.156 5.148t-5.148 13.156v329.465q0 8.008 5.148 13.156t13.156 5.148h36.607q8.008 0 13.156-5.148t5.148-13.156zM439.286 430.005v-329.465q0-8.008-5.148-13.156t-13.156-5.148h-36.607q-8.008 0-13.156 5.148t-5.148 13.156v329.465q0 8.008 5.148 13.156t13.156 5.148h36.607q8.008 0 13.156-5.148t5.148-13.156zM585.715 430.005v-329.465q0-8.008-5.148-13.156t-13.156-5.148h-36.607q-8.008 0-13.156 5.148t-5.148 13.156v329.465q0 8.008 5.148 13.156t13.156 5.148h36.607q8.008 0 13.156-5.148t5.148-13.156zM658.929 15.886v542.244h-512.5v-542.244q0-12.583 4.004-23.166t8.294-15.444 6.006-4.862h475.894q1.716 0 6.006 4.862t8.294 15.444 4.004 23.166zM274.554 631.344h256.25l-27.456 66.922q-4.004 5.148-9.723 6.292h-181.32q-5.72-1.144-9.723-6.292zM805.357 613.041v-36.607q0-8.008-5.148-13.156t-13.156-5.148h-54.911v-542.244q0-47.475-26.883-82.080t-64.634-34.605h-475.894q-37.751 0-64.634 33.462t-26.883 80.936v544.532h-54.911q-8.008 0-13.156 5.148t-5.148 13.156v36.607q0 8.008 5.148 13.156t13.156 5.148h176.744l40.039 95.522q8.579 21.164 30.887 36.035t45.187 14.872h183.036q22.879 0 45.187-14.872t30.887-36.035l40.039-95.522h176.744q8.008 0 13.156-5.148t5.148-13.156z" />
<glyph unicode="&#xf015;" glyph-name="home" horiz-adv-x="952" d="M805.357 283.576v-274.554q0-14.872-10.868-25.739t-25.739-10.868h-219.643v219.643h-146.429v-219.643h-219.643q-14.872 0-25.739 10.868t-10.868 25.739v274.554q0 0.572 0.286 1.716t0.286 1.716l328.892 271.122 328.892-271.122q0.572-1.144 0.572-3.432zM932.911 323.043l-35.464-42.327q-4.575-5.148-12.012-6.292h-1.716q-7.436 0-12.012 4.004l-395.816 330.036-395.816-330.036q-6.864-4.575-13.727-4.004-7.436 1.144-12.012 6.292l-35.464 42.327q-4.575 5.72-4.004 13.442t6.292 12.298l411.259 342.621q18.304 14.872 43.471 14.872t43.471-14.872l139.565-116.685v111.538q0 8.008 5.148 13.156t13.156 5.148h109.821q8.008 0 13.156-5.148t5.148-13.156v-233.371l125.265-104.102q5.72-4.575 6.292-12.298t-4.004-13.442z" />
<glyph unicode="&#xf019;" glyph-name="download_alt" horiz-adv-x="952" d="M732.144 82.237q0 14.872-10.868 25.739t-25.739 10.868-25.739-10.868-10.868-25.739 10.868-25.739 25.739-10.868 25.739 10.868 10.868 25.739zM878.572 82.237q0 14.872-10.868 25.739t-25.739 10.868-25.739-10.868-10.868-25.739 10.868-25.739 25.739-10.868 25.739 10.868 10.868 25.739zM951.786 210.362v-183.036q0-22.879-16.016-38.895t-38.895-16.016h-841.965q-22.879 0-38.895 16.016t-16.016 38.895v183.036q0 22.879 16.016 38.895t38.895 16.016h265.974l77.218-77.79q33.175-32.031 77.79-32.031t77.79 32.031l77.79 77.79h265.402q22.879 0 38.895-16.016t16.016-38.895zM765.891 535.823q9.723-23.452-8.008-40.039l-256.25-256.25q-10.296-10.868-25.739-10.868t-25.739 10.868l-256.25 256.25q-17.731 16.587-8.008 40.039 9.723 22.308 33.747 22.308h146.429v256.25q0 14.872 10.868 25.739t25.739 10.868h146.429q14.872 0 25.739-10.868t10.868-25.739v-256.25h146.429q24.023 0 33.747-22.308z" />
<glyph unicode="&#xf023;" glyph-name="lock" horiz-adv-x="659" d="M183.036 411.701h292.857v109.821q0 60.63-42.899 103.53t-103.53 42.899-103.53-42.899-42.899-103.53v-109.821zM658.929 356.791v-329.465q0-22.879-16.016-38.895t-38.895-16.016h-549.107q-22.879 0-38.895 16.016t-16.016 38.895v329.465q0 22.879 16.016 38.895t38.895 16.016h18.304v109.821q0 105.246 75.503 180.748t180.748 75.503 180.748-75.503 75.503-180.748v-109.821h18.304q22.879 0 38.895-16.016t16.016-38.895z" />
<glyph unicode="&#xf029;" glyph-name="qrcode" horiz-adv-x="806" d="M219.643 192.058v-73.214h-73.214v73.214h73.214zM219.643 631.344v-73.214h-73.214v73.214h73.214zM658.929 631.344v-73.214h-73.214v73.214h73.214zM73.214 46.201h219.643v219.071h-219.643v-219.071zM73.214 484.916h219.643v219.643h-219.643v-219.643zM512.5 484.916h219.643v219.643h-219.643v-219.643zM366.071 338.487v-366.071h-366.071v366.071h366.071zM658.929 45.63v-73.214h-73.214v73.214h73.214zM805.357 45.63v-73.214h-73.214v73.214h73.214zM805.357 338.487v-219.643h-219.643v73.214h-73.214v-219.643h-73.214v366.071h219.643v-73.214h73.214v73.214h73.214zM366.071 777.773v-366.071h-366.071v366.071h366.071zM805.357 777.773v-366.071h-366.071v366.071h366.071z" />
<glyph unicode="&#xf02b;" glyph-name="tag" d="M256.25 594.737q0 30.316-21.45 51.765t-51.765 21.45-51.765-21.45-21.45-51.765 21.45-51.765 51.765-21.45 51.765 21.45 21.45 51.765zM866.56 265.272q0-30.316-21.164-51.479l-280.845-281.418q-22.308-21.164-52.051-21.164-30.316 0-51.479 21.164l-408.97 409.543q-21.735 21.164-36.893 57.77t-15.158 66.922v237.946q0 29.743 21.735 51.479t51.479 21.735h237.946q30.316 0 66.922-15.158t58.343-36.893l408.97-408.399q21.164-22.308 21.164-52.051z" />
<glyph unicode="&#xf02c;" glyph-name="tags" horiz-adv-x="1098" d="M256.25 594.737q0 30.316-21.45 51.765t-51.765 21.45-51.765-21.45-21.45-51.765 21.45-51.765 51.765-21.45 51.765 21.45 21.45 51.765zM866.56 265.272q0-30.316-21.164-51.479l-280.845-281.418q-22.308-21.164-52.051-21.164-30.316 0-51.479 21.164l-408.97 409.543q-21.735 21.164-36.893 57.77t-15.158 66.922v237.946q0 29.743 21.735 51.479t51.479 21.735h237.946q30.316 0 66.922-15.158t58.343-36.893l408.97-408.399q21.164-22.308 21.164-52.051zM1086.204 265.272q0-30.316-21.164-51.479l-280.845-281.418q-22.308-21.164-52.051-21.164-20.591 0-33.747 8.008t-30.316 25.739l268.834 268.834q21.164 21.164 21.164 51.479 0 29.743-21.164 52.051l-408.97 408.399q-21.735 21.735-58.343 36.893t-66.922 15.158h128.125q30.316 0 66.922-15.158t58.343-36.893l408.97-408.399q21.164-22.308 21.164-52.051z" />
<glyph unicode="&#xf02d;" glyph-name="book" horiz-adv-x="952" d="M937.487 577.577q22.879-32.603 10.296-73.786l-157.297-518.22q-10.868-36.607-43.757-61.489t-70.068-24.881h-527.945q-44.043 0-84.94 30.601t-56.913 75.216q-13.727 38.323-1.144 72.642 0 2.288 1.716 15.444t2.288 21.164q0.572 4.575-1.716 12.298t-1.716 11.154q1.144 6.292 4.575 12.012t9.438 13.442 9.438 13.442q13.156 21.735 25.739 52.337t17.16 52.337q1.716 5.72 0.286 17.16t-0.286 16.016q1.716 6.292 9.723 16.016t9.723 13.156q12.012 20.591 24.023 52.622t14.3 51.479q0.572 5.148-1.43 18.304t0.286 16.016q2.288 7.436 12.583 17.446t12.583 12.87q10.868 14.872 24.31 48.333t15.729 55.197q0.572 4.575-1.716 14.585t-1.144 15.158q1.144 4.575 5.148 10.296t10.296 13.156 9.723 12.012q4.575 6.864 9.438 17.446t8.579 20.020 9.152 20.591 11.154 18.304 15.158 13.442 20.591 6.577 27.17-3.146l-0.572-1.716q21.735 5.148 29.171 5.148h435.282q42.327 0 65.207-32.031t10.296-74.359l-156.724-518.22q-20.591-68.066-40.897-87.8t-73.501-19.733h-497.056q-15.444 0-21.735-8.579-6.292-9.152-0.572-24.595 13.727-40.039 82.366-40.039h527.945q16.587 0 32.031 8.866t20.020 23.737l171.597 564.551q4.004 12.583 2.86 32.603 21.735-8.579 33.747-24.595zM328.892 576.433q-2.288-7.436 1.144-12.87t11.44-5.434h347.769q7.436 0 14.585 5.434t9.438 12.87l12.012 36.607q2.288 7.436-1.144 12.87t-11.44 5.434h-347.769q-7.436 0-14.585-5.434t-9.438-12.87zM281.418 430.005q-2.288-7.436 1.144-12.87t11.44-5.434h347.769q7.436 0 14.585 5.434t9.438 12.87l12.012 36.607q2.288 7.436-1.144 12.87t-11.44 5.434h-347.769q-7.436 0-14.585-5.434t-9.438-12.87z" />
<glyph unicode="&#xf06e;" glyph-name="eye_open" d="M951.786 301.88q-86.942 134.989-217.927 201.911 34.891-59.487 34.891-128.697 0-105.817-75.216-181.034t-181.034-75.216-181.034 75.216-75.216 181.034q0 69.211 34.891 128.697-130.985-66.922-217.927-201.911 76.074-117.258 190.757-186.753t248.529-69.497 248.529 69.497 190.757 186.753zM539.956 521.523q0 11.44-8.008 19.448t-19.448 8.008q-71.499 0-122.691-51.193t-51.193-122.691q0-11.44 8.008-19.448t19.448-8.008 19.448 8.008 8.008 19.448q0 49.191 34.891 84.082t84.082 34.891q11.44 0 19.448 8.008t8.008 19.448zM1025.001 301.88q0-19.448-11.44-39.468-80.078-131.557-215.353-210.777t-285.708-79.22-285.708 79.507-215.353 210.492q-11.44 20.020-11.44 39.468t11.44 39.468q80.078 130.985 215.353 210.492t285.708 79.507 285.708-79.507 215.353-210.492q11.44-20.020 11.44-39.468z" />
<glyph unicode="&#xf070;" glyph-name="eye_close" d="M317.453 87.385l44.615 80.65q-49.763 36.035-77.79 90.946t-28.027 116.113q0 69.211 34.891 128.697-130.985-66.922-217.927-201.911 95.522-147.573 244.239-214.495zM539.956 521.523q0 11.44-8.008 19.448t-19.448 8.008q-71.499 0-122.691-51.193t-51.193-122.691q0-11.44 8.008-19.448t19.448-8.008 19.448 8.008 8.008 19.448q0 49.191 34.891 84.082t84.082 34.891q11.44 0 19.448 8.008t8.008 19.448zM747.587 630.772q0-4.004-0.572-5.148-60.63-108.106-180.748-324.317t-180.176-323.745l-28.027-50.907q-5.72-9.152-16.016-9.152-6.864 0-76.646 40.039-9.152 5.72-9.152 16.016 0 6.864 25.168 49.763-81.794 37.179-150.718 98.954t-119.259 140.137q-11.44 17.731-11.44 39.468t11.44 39.468q87.514 134.417 217.355 212.207t283.706 77.79q50.907 0 102.958-9.723l30.887 55.483q5.72 9.152 16.016 9.152 2.86 0 10.296-3.432t17.731-8.866 18.875-10.581 18.018-10.581 11.154-6.577q9.152-5.72 9.152-15.444zM768.751 375.094q0-79.507-45.187-144.999t-119.546-94.092l160.156 287.137q4.575-25.739 4.575-48.047zM1025.001 301.88q0-20.020-11.44-39.468-22.308-36.607-62.347-82.938-85.798-98.382-198.765-152.72t-239.948-54.339l42.327 75.503q121.261 10.296 224.505 78.363t172.454 175.6q-65.778 102.386-161.301 168.164l36.035 64.063q54.339-36.607 104.388-87.514t82.652-105.246q11.44-19.448 11.44-39.468z" />
<glyph unicode="&#xf071;" glyph-name="warning_sign" d="M585.715 64.505v108.677q0 8.008-5.434 13.442t-12.87 5.434h-109.821q-7.436 0-12.87-5.434t-5.434-13.442v-108.677q0-8.008 5.434-13.442t12.87-5.434h109.821q7.436 0 12.87 5.434t5.434 13.442zM584.571 278.428l10.296 262.542q0 6.864-5.72 10.868-7.436 6.292-13.727 6.292h-125.837q-6.292 0-13.727-6.292-5.72-4.004-5.72-12.012l9.723-261.398q0-5.72 5.72-9.438t13.727-3.718h105.817q8.008 0 13.442 3.718t6.006 9.438zM576.563 812.664l439.286-805.357q20.020-36.035-1.144-72.070-9.723-16.587-26.597-26.312t-36.321-9.723h-878.572q-19.448 0-36.321 9.723t-26.597 26.312q-21.164 36.035-1.144 72.070l439.286 805.357q9.723 17.731 26.883 28.027t37.179 10.296 37.179-10.296 26.883-28.027z" />
<glyph unicode="&#xf080;" glyph-name="bar_chart" horiz-adv-x="1171" d="M366.071 338.487v-292.857h-146.429v292.857h146.429zM585.715 631.344v-585.715h-146.429v585.715h146.429zM1171.43-27.585v-73.214h-1171.43v878.572h73.214v-805.357h1098.215zM805.357 484.916v-439.286h-146.429v439.286h146.429zM1025.001 704.558v-658.929h-146.429v658.929h146.429z" />
<glyph unicode="&#xf085;" glyph-name="cogs" horiz-adv-x="1098" d="M512.5 338.487q0 60.63-42.899 103.53t-103.53 42.899-103.53-42.899-42.899-103.53 42.899-103.53 103.53-42.899 103.53 42.899 42.899 103.53zM951.786 45.63q0 29.743-21.735 51.479t-51.479 21.735-51.479-21.735-21.735-51.479q0-30.316 21.45-51.765t51.765-21.45 51.765 21.45 21.45 51.765zM951.786 631.344q0 29.743-21.735 51.479t-51.479 21.735-51.479-21.735-21.735-51.479q0-30.316 21.45-51.765t51.765-21.45 51.765 21.45 21.45 51.765zM732.144 390.538v-105.817q0-5.72-4.004-11.154t-9.152-6.006l-88.658-13.727q-6.292-20.020-18.304-43.471 19.448-27.456 51.479-65.778 4.004-6.292 4.004-11.44 0-6.864-4.004-10.868-13.156-17.16-47.189-51.193t-44.901-34.033q-6.292 0-12.012 4.004l-65.778 51.479q-21.164-10.868-44.043-17.731-6.292-61.774-13.156-88.658-4.004-13.727-17.16-13.727h-106.39q-6.292 0-11.44 4.29t-5.72 10.010l-13.156 87.514q-19.448 5.72-42.899 17.731l-67.495-50.907q-4.004-4.004-11.44-4.004-6.292 0-12.012 4.575-82.366 76.074-82.366 91.518 0 5.148 4.004 10.868 5.72 8.008 23.452 30.316t26.883 34.891q-13.156 25.168-20.020 46.903l-86.942 13.727q-5.72 0.572-9.723 5.434t-4.004 11.154v105.817q0 5.72 4.004 11.154t9.152 6.006l88.658 13.727q6.292 20.020 18.304 43.471-19.448 27.456-51.479 65.778-4.004 6.292-4.004 11.44 0 6.864 4.004 11.44 12.583 17.16 46.903 50.907t45.187 33.747q6.292 0 12.012-4.004l65.778-51.479q19.448 10.296 44.043 18.304 6.292 61.774 13.156 88.086 4.004 13.727 17.16 13.727h106.39q6.292 0 11.44-4.29t5.72-10.010l13.156-87.514q19.448-5.72 42.899-17.731l67.495 50.907q4.575 4.004 11.44 4.004 6.292 0 12.012-4.575 82.366-76.074 82.366-91.518 0-4.575-4.004-10.868-6.864-9.152-24.023-30.887t-25.739-34.32q13.156-27.456 19.448-46.903l86.942-13.156q5.72-1.144 9.723-6.006t4.004-11.154zM1098.215 85.669v-80.078q0-9.152-85.226-17.731-6.864-15.444-17.16-29.743 29.171-64.634 29.171-78.934 0-2.288-2.288-4.004-69.782-40.611-70.926-40.611-4.575 0-26.312 26.883t-29.743 38.895q-11.44-1.144-17.16-1.144t-17.16 1.144q-8.008-12.012-29.743-38.895t-26.312-26.883q-1.144 0-70.926 40.611-2.288 1.716-2.288 4.004 0 14.3 29.171 78.934-10.296 14.3-17.16 29.743-85.226 8.579-85.226 17.731v80.078q0 9.152 85.226 17.731 7.436 16.587 17.16 29.743-29.171 64.634-29.171 78.934 0 2.288 2.288 4.004 2.288 1.144 20.020 11.44t33.747 19.448 17.16 9.152q4.575 0 26.312-26.597t29.743-38.609q11.44 1.144 17.16 1.144t17.16-1.144q29.171 40.611 52.622 64.063l3.432 1.144q2.288 0 70.926-40.039 2.288-1.716 2.288-4.004 0-14.3-29.171-78.934 9.723-13.156 17.16-29.743 85.226-8.579 85.226-17.731zM1098.215 671.383v-80.078q0-9.152-85.226-17.731-6.864-15.444-17.16-29.743 29.171-64.634 29.171-78.934 0-2.288-2.288-4.004-69.782-40.611-70.926-40.611-4.575 0-26.312 26.883t-29.743 38.895q-11.44-1.144-17.16-1.144t-17.16 1.144q-8.008-12.012-29.743-38.895t-26.312-26.883q-1.144 0-70.926 40.611-2.288 1.716-2.288 4.004 0 14.3 29.171 78.934-10.296 14.3-17.16 29.743-85.226 8.579-85.226 17.731v80.078q0 9.152 85.226 17.731 7.436 16.587 17.16 29.743-29.171 64.634-29.171 78.934 0 2.288 2.288 4.004 2.288 1.144 20.020 11.44t33.747 19.448 17.16 9.152q4.575 0 26.312-26.597t29.743-38.609q11.44 1.144 17.16 1.144t17.16-1.144q29.171 40.611 52.622 64.063l3.432 1.144q2.288 0 70.926-40.039 2.288-1.716 2.288-4.004 0-14.3-29.171-78.934 9.723-13.156 17.16-29.743 85.226-8.579 85.226-17.731z" />
<glyph unicode="&#xf086;" glyph-name="comments" d="M805.357 411.701q0-79.507-53.767-147.001t-146.714-106.675-202.197-39.181q-49.191 0-100.669 9.152-70.926-50.335-159.012-73.214-20.591-5.148-49.191-9.152h-1.716q-6.292 0-11.725 4.575t-6.577 12.012q-0.572 1.716-0.572 3.718t0.286 3.718 1.144 3.432l1.43 2.86t2.002 3.146 2.288 2.86 2.574 2.86 2.288 2.574q2.86 3.432 13.156 14.3t14.872 16.873 12.87 16.587 14.3 22.022 11.725 25.168q-70.926 41.183-111.538 101.242t-40.611 128.125q0 79.507 53.767 147.001t146.714 106.675 202.197 39.181 202.197-39.181 146.714-106.675 53.767-147.001zM1025.001 265.272q0-68.638-40.611-128.411t-111.538-100.956q5.72-13.727 11.725-25.168t14.3-22.022 12.87-16.587 14.872-16.873 13.156-14.3q0.572-0.572 2.288-2.574t2.574-2.86 2.288-2.86 2.002-3.146l1.43-2.86t1.144-3.432 0.286-3.718-0.572-3.718q-1.716-8.008-7.436-12.583t-12.583-4.004q-28.599 4.004-49.191 9.152-88.086 22.879-159.012 73.214-51.479-9.152-100.669-9.152-155.008 0-269.978 75.503 33.175-2.288 50.335-2.288 92.090 0 176.744 25.739t151.004 73.786q71.499 52.622 109.821 121.261t38.323 145.285q0 44.043-13.156 86.942 73.786-40.611 116.685-101.813t42.899-131.557z" />
<glyph unicode="&#xf08b;" glyph-name="signout" horiz-adv-x="952" d="M366.071 27.326q0-2.288 0.572-11.44t0.286-15.158-1.716-13.442-5.72-11.154-11.725-3.718h-183.036q-68.066 0-116.4 48.333t-48.333 116.4v402.679q0 68.066 48.333 116.4t116.4 48.333h183.036q7.436 0 12.87-5.434t5.434-12.87q0-2.288 0.572-11.44t0.286-15.158-1.716-13.442-5.72-11.154-11.725-3.718h-183.036q-37.751 0-64.634-26.883t-26.883-64.634v-402.679q0-37.751 26.883-64.634t64.634-26.883h178.46t6.577-0.572 6.577-1.716 4.575-3.146 4.004-5.148 1.144-7.722zM896.876 338.487q0-14.872-10.868-25.739l-311.161-311.161q-10.868-10.868-25.739-10.868t-25.739 10.868-10.868 25.739v164.732h-256.25q-14.872 0-25.739 10.868t-10.868 25.739v219.643q0 14.872 10.868 25.739t25.739 10.868h256.25v164.732q0 14.872 10.868 25.739t25.739 10.868 25.739-10.868l311.161-311.161q10.868-10.868 10.868-25.739z" />
<glyph unicode="&#xf08e;" glyph-name="external-link" d="M805.357 320.183v-183.036q0-68.066-48.333-116.4t-116.4-48.333h-475.894q-68.066 0-116.4 48.333t-48.333 116.4v475.894q0 68.066 48.333 116.4t116.4 48.333h402.679q8.008 0 13.156-5.148t5.148-13.156v-36.607q0-8.008-5.148-13.156t-13.156-5.148h-402.679q-37.751 0-64.634-26.883t-26.883-64.634v-475.894q0-37.751 26.883-64.634t64.634-26.883h475.894q37.751 0 64.634 26.883t26.883 64.634v183.036q0 8.008 5.148 13.156t13.156 5.148h36.607q8.008 0 13.156-5.148t5.148-13.156zM1025.001 814.381v-292.857q0-14.872-10.868-25.739t-25.739-10.868-25.739 10.868l-100.669 100.669-372.935-372.935q-5.72-5.72-13.156-5.72t-13.156 5.72l-65.207 65.207q-5.72 5.72-5.72 13.156t5.72 13.156l372.935 372.935-100.669 100.669q-10.868 10.868-10.868 25.739t10.868 25.739 25.739 10.868h292.857q14.872 0 25.739-10.868t10.868-25.739z" />
<glyph unicode="&#xf09d;" glyph-name="credit-card" horiz-adv-x="1098" d="M1006.697 777.773q37.751 0 64.634-26.883t26.883-64.634v-695.536q0-37.751-26.883-64.634t-64.634-26.883h-915.18q-37.751 0-64.634 26.883t-26.883 64.634v695.536q0 37.751 26.883 64.634t64.634 26.883h915.18zM91.518 704.558q-7.436 0-12.87-5.434t-5.434-12.87v-128.125h951.786v128.125q0 7.436-5.434 12.87t-12.87 5.434h-915.18zM1006.697-27.585q7.436 0 12.87 5.434t5.434 12.87v347.769h-951.786v-347.769q0-7.436 5.434-12.87t12.87-5.434h915.18zM146.429 45.63v73.214h146.429v-73.214h-146.429zM366.071 45.63v73.214h219.643v-73.214h-219.643z" />
<glyph unicode="&#xf0c0;" glyph-name="group" horiz-adv-x="1098" d="M339.188 338.487q-92.661-2.86-151.577-73.214h-76.646q-46.903 0-78.934 23.166t-32.031 67.78q0 201.911 70.926 201.911 3.432 0 24.881-12.012t55.768-24.31 68.066-12.298q38.323 0 76.074 13.156-2.86-21.164-2.86-37.751 0-79.507 46.331-146.429zM951.786-25.869q0-68.638-41.755-108.392t-110.965-39.753h-499.917q-69.211 0-110.965 39.753t-41.755 108.392q0 30.316 2.002 59.201t8.008 62.347 15.158 62.061 24.595 55.768 35.464 46.331 48.905 30.601 63.776 11.44q5.72 0 24.595-12.298t41.755-27.456 61.203-27.456 77.218-12.298 77.218 12.298 61.203 27.456 41.755 27.456 24.595 12.298q34.891 0 63.776-11.44t48.905-30.601 35.464-46.331 24.595-55.768 15.158-62.061 8.008-62.347 2.002-59.201zM366.071 704.558q0-60.63-42.899-103.53t-103.53-42.899-103.53 42.899-42.899 103.53 42.899 103.53 103.53 42.899 103.53-42.899 42.899-103.53zM768.751 484.916q0-90.946-64.349-155.295t-155.295-64.349-155.295 64.349-64.349 155.295 64.349 155.295 155.295 64.349 155.295-64.349 64.349-155.295zM1098.215 356.218q0-44.615-32.031-67.78t-78.934-23.166h-76.646q-58.915 70.355-151.577 73.214 46.331 66.922 46.331 146.429 0 16.587-2.86 37.751 37.751-13.156 76.074-13.156 33.747 0 68.066 12.298t55.768 24.31 24.881 12.012q70.926 0 70.926-201.911zM1025.001 704.558q0-60.63-42.899-103.53t-103.53-42.899-103.53 42.899-42.899 103.53 42.899 103.53 103.53 42.899 103.53-42.899 42.899-103.53z" />
<glyph unicode="&#xf0c1;" glyph-name="link" horiz-adv-x="952" d="M832.813 155.451q0 22.879-16.016 38.895l-118.973 118.973q-16.016 16.016-38.895 16.016-24.023 0-41.183-18.304 1.716-1.716 10.868-10.581t12.298-12.298 8.579-10.868 7.436-14.585 2.002-15.729q0-22.879-16.016-38.895t-38.895-16.016q-8.579 0-15.729 2.002t-14.585 7.436-10.868 8.579-12.298 12.298-10.581 10.868q-18.875-17.731-18.875-41.755 0-22.879 16.016-38.895l117.829-118.402q15.444-15.444 38.895-15.444 22.879 0 38.895 14.872l84.082 83.511q16.016 16.016 16.016 38.323zM430.707 558.702q0 22.879-16.016 38.895l-117.829 118.402q-16.016 16.016-38.895 16.016-22.308 0-38.895-15.444l-84.082-83.511q-16.016-16.016-16.016-38.323 0-22.879 16.016-38.895l118.973-118.973q15.444-15.444 38.895-15.444 24.023 0 41.183 17.731-1.716 1.716-10.868 10.581t-12.298 12.298-8.579 10.868-7.436 14.585-2.002 15.729q0 22.879 16.016 38.895t38.895 16.016q8.579 0 15.729-2.002t14.585-7.436 10.868-8.579 12.298-12.298 10.581-10.868q18.875 17.731 18.875 41.755zM942.635 155.451q0-68.638-48.618-116.113l-84.082-83.511q-47.475-47.475-116.113-47.475-69.211 0-116.685 48.618l-117.829 118.402q-47.475 47.475-47.475 116.113 0 70.355 50.335 119.546l-50.335 50.335q-49.191-50.335-118.973-50.335-68.638 0-116.685 48.047l-118.973 118.973q-48.047 48.047-48.047 116.685t48.618 116.113l84.082 83.511q47.475 47.475 116.113 47.475 69.211 0 116.685-48.618l117.829-118.402q47.475-47.475 47.475-116.113 0-70.355-50.335-119.546l50.335-50.335q49.191 50.335 118.973 50.335 68.638 0 116.685-48.047l118.973-118.973q48.047-48.047 48.047-116.685z" />
<glyph unicode="&#xf0c6;" glyph-name="paper-clip" horiz-adv-x="806" d="M803.070 58.785q0-66.922-45.187-112.109t-112.109-45.187q-77.218 0-134.417 57.199l-444.434 443.862q-64.634 65.778-64.634 155.008 0 90.946 62.918 154.437t153.864 63.491q90.374 0 156.152-64.634l346.052-346.625q5.72-5.72 5.72-12.583 0-9.152-17.446-26.597t-26.597-17.446q-7.436 0-13.156 5.72l-346.625 347.196q-45.187 44.043-103.53 44.043-60.63 0-102.386-42.899t-41.755-103.53q0-60.059 43.471-103.53l443.862-444.434q36.035-36.035 82.938-36.035 36.607 0 60.63 24.023t24.023 60.63q0 46.903-36.035 82.938l-332.325 332.325q-14.872 13.727-34.32 13.727-16.587 0-27.456-10.868t-10.868-27.456q0-18.304 14.3-33.747l234.515-234.515q5.72-5.72 5.72-12.583 0-9.152-17.731-26.883t-26.883-17.731q-6.864 0-12.583 5.72l-234.515 234.515q-36.035 34.891-36.035 85.226 0 46.903 32.603 79.507t79.507 32.603q50.335 0 85.226-36.035l332.325-332.325q57.199-56.055 57.199-134.417z" />
<glyph unicode="&#xf0e2;" glyph-name="undo" d="M878.572 338.487q0-89.23-34.891-170.452t-93.806-140.137-140.137-93.806-170.452-34.891q-98.382 0-187.040 41.469t-151.004 116.971q-4.004 5.72-3.718 12.87t4.862 11.725l78.363 78.934q5.72 5.148 14.3 5.148 9.152-1.144 13.156-6.864 41.755-54.339 102.386-84.082t128.697-29.743q59.487 0 113.54 23.166t93.52 62.632 62.632 93.52 23.166 113.54-23.166 113.54-62.632 93.52-93.52 62.632-113.54 23.166q-56.055 0-107.534-20.306t-91.518-58.057l78.363-78.934q17.731-17.16 8.008-39.468-9.723-22.879-33.747-22.879h-256.25q-14.872 0-25.739 10.868t-10.868 25.739v256.25q0 24.023 22.879 33.747 22.308 9.723 39.468-8.008l74.359-73.786q61.203 57.77 139.851 89.516t162.73 31.745q89.23 0 170.452-34.891t140.137-93.806 93.806-140.137 34.891-170.452z" />
<glyph unicode="&#xf0ea;" glyph-name="paste" d="M439.286-100.799h512.5v366.071h-237.946q-22.879 0-38.895 16.016t-16.016 38.895v237.946h-219.643v-658.929zM585.715 722.862v36.607q0 7.436-5.434 12.87t-12.87 5.434h-402.679q-7.436 0-12.87-5.434t-5.434-12.87v-36.607q0-7.436 5.434-12.87t12.87-5.434h402.679q7.436 0 12.87 5.434t5.434 12.87zM732.144 338.487h171.024l-171.024 171.024v-171.024zM1025.001 265.272v-384.375q0-22.879-16.016-38.895t-38.895-16.016h-549.107q-22.879 0-38.895 16.016t-16.016 38.895v91.518h-311.161q-22.879 0-38.895 16.016t-16.016 38.895v768.751q0 22.879 16.016 38.895t38.895 16.016h622.322q22.879 0 38.895-16.016t16.016-38.895v-187.612q12.012-7.436 20.591-16.016l233.371-233.371q16.016-16.016 27.456-43.471t11.44-50.335z" />
<glyph unicode="&#xf132;" glyph-name="shield" horiz-adv-x="732" d="M622.322 301.88v366.071h-256.25v-650.349q68.066 36.035 121.833 78.363 134.417 105.246 134.417 205.915zM732.144 741.166v-439.286q0-49.191-19.162-97.524t-47.475-85.798-67.495-72.928-72.357-58.915-69.211-44.329-51.193-28.314-24.31-11.44q-6.864-3.432-14.872-3.432t-14.872 3.432q-9.152 4.004-24.31 11.44t-51.193 28.314-69.211 44.329-72.357 58.915-67.495 72.928-47.475 85.798-19.162 97.524v439.286q0 14.872 10.868 25.739t25.739 10.868h658.929q14.872 0 25.739-10.868t10.868-25.739z" />
<glyph unicode="&#xf13b;" glyph-name="html5" horiz-adv-x="806" d="M646.345 509.511l9.152 100.098h-505.637l26.883-305.441h350.056l-12.583-130.413-112.681-30.316-112.109 30.316-7.436 80.078h-100.098l12.583-159.012 207.059-57.199h2.288v0.572l205.344 56.626 28.599 311.161h-368.36l-8.579 103.53h385.519zM0 777.773h805.357l-73.214-822.517-330.609-92.661-328.321 92.661z" />
<glyph unicode="&#xf13c;" glyph-name="css3" d="M157.297 777.773h860.841l-152.149-762.459-459.878-152.72-399.247 152.72 40.611 203.628h169.88l-16.587-84.082 241.379-92.090 277.985 92.090 38.895 193.903h-690.961l33.175 169.88h691.532l21.735 109.25h-690.961z" />
<glyph unicode="&#xf15a;" glyph-name="btc" horiz-adv-x="732" d="M667.509 484.916q10.296-104.102-74.93-147.573 66.922-16.016 100.098-58.915t25.739-122.406q-4.004-40.611-18.589-71.499t-36.893-50.907-55.483-33.462-69.497-19.733-83.224-8.579v-145.856h-88.086v143.569q-45.759 0-69.782 0.572v-144.141h-88.086v145.856q-10.296 0-30.887 0.286t-31.46 0.286h-114.398l17.731 104.673h63.491q28.599 0 33.175 29.171v229.939h9.152q-3.432 0.572-9.152 0.572v164.16q-7.436 38.895-50.907 38.895h-63.491v93.806l121.261-0.572q36.607 0 55.483 0.572v144.141h88.086v-141.281q46.903 1.144 69.782 1.144v140.137h88.086v-144.141q45.187-4.004 80.078-12.87t64.634-25.739 47.189-44.615 20.877-65.493zM544.532 173.182q0 20.591-8.579 36.607t-21.164 26.312-32.889 17.446-37.466 10.581-42.327 5.148-39.468 1.716-36.893-0.572-27.17-0.572v-193.332q4.575 0 21.164-0.286t27.456-0.286 30.316 0.858 33.462 2.288 32.603 4.862 31.745 8.008 27.17 12.012 22.593 17.16 14.014 22.879 5.434 29.171zM503.921 445.448q0 18.875-7.15 33.462t-17.446 24.023-27.456 16.016-31.46 9.438-35.177 4.575-33.175 1.43-30.887-0.572-22.593-0.286v-175.6q2.86 0 19.733-0.286t26.597 0 28.599 1.144 31.46 3.146 29.458 6.292 27.741 10.581 21.164 15.444 15.444 22.022 5.148 29.171z" />
<glyph unicode="&#xf164;" glyph-name="_334" horiz-adv-x="952" d="M146.429 82.237q0 14.872-10.868 25.739t-25.739 10.868q-15.444 0-26.025-10.868t-10.581-25.739q0-15.444 10.581-26.025t26.025-10.581q14.872 0 25.739 10.581t10.868 26.025zM237.946 375.094v-366.071q0-14.872-10.868-25.739t-25.739-10.868h-164.732q-14.872 0-25.739 10.868t-10.868 25.739v366.071q0 14.872 10.868 25.739t25.739 10.868h164.732q14.872 0 25.739-10.868t10.868-25.739zM915.18 375.094q0-49.191-31.46-85.226 8.579-25.168 8.579-43.471 1.716-43.471-24.595-78.363 9.723-32.031 0-66.922-8.579-32.603-30.887-53.767 5.148-64.063-28.027-103.53-36.607-43.471-112.681-44.615h-73.786q-37.751 0-82.366 8.866t-69.497 16.587-68.924 22.593q-70.355 24.595-90.374 25.168-14.872 0.572-25.739 11.154t-10.868 25.454v366.644q0 14.3 10.296 24.881t24.595 11.725q13.727 1.144 43.471 33.747t57.77 69.211q38.895 49.763 57.77 68.638 10.296 10.296 17.731 27.456t10.010 27.741 7.722 34.605q4.004 22.308 7.15 34.891t11.154 29.743 19.448 28.599q10.868 10.868 25.739 10.868 26.312 0 47.189-6.006t34.32-14.872 22.879-23.166 13.727-25.739 6.864-28.599 2.86-25.739 0.286-22.308q0-21.735-5.434-43.471t-10.868-34.32-15.729-32.031q-1.716-3.432-5.72-10.296t-6.292-12.583-4.575-13.727h158.441q44.615 0 77.218-32.603t32.603-77.218z" />
<glyph unicode="&#xf165;" glyph-name="_335" horiz-adv-x="952" d="M146.429 521.523q0-14.872-10.868-25.739t-25.739-10.868q-15.444 0-26.025 10.868t-10.581 25.739q0 15.444 10.581 26.025t26.025 10.581q14.872 0 25.739-10.581t10.868-26.025zM237.946 228.666v366.071q0 14.872-10.868 25.739t-25.739 10.868h-164.732q-14.872 0-25.739-10.868t-10.868-25.739v-366.071q0-14.872 10.868-25.739t25.739-10.868h164.732q14.872 0 25.739 10.868t10.868 25.739zM883.72 313.892q31.46-34.891 31.46-85.226-0.572-44.615-32.889-77.218t-76.932-32.603h-158.441q2.288-8.008 4.575-13.727t6.292-12.583 5.72-10.296q10.296-21.164 15.444-32.603t10.868-33.462 5.72-43.757q0-13.727-0.286-22.308t-2.86-25.739-6.864-28.599-13.727-25.739-22.879-23.166-34.32-14.872-47.189-6.006q-14.872 0-25.739 10.868-11.44 11.44-19.448 28.599t-11.154 29.743-7.15 34.891q-5.148 24.023-7.722 34.605t-10.010 27.741-17.731 27.456q-18.875 18.875-57.77 68.638-28.027 36.607-57.77 69.211t-43.471 33.747q-14.3 1.144-24.595 11.725t-10.296 24.881v366.644q0 14.872 10.868 25.454t25.739 11.154q20.020 0.572 90.374 25.168 44.043 14.872 68.924 22.593t69.497 16.587 82.366 8.866h73.786q76.074-1.144 112.681-44.615 33.175-39.468 28.027-103.53 22.308-21.164 30.887-53.767 9.723-34.891 0-66.922 26.312-34.891 24.595-78.363 0-18.304-8.579-43.471z" />
<glyph unicode="&#xf175;" glyph-name="long_arrow_down" horiz-adv-x="439" d="M437.57 107.976q4.575-10.868-2.86-20.020l-200.196-219.643q-5.72-5.72-13.156-5.72-8.008 0-13.727 5.72l-203.055 219.643q-7.436 9.152-2.86 20.020 5.148 10.868 16.587 10.868h128.125v713.84q0 8.008 5.148 13.156t13.156 5.148h109.821q8.008 0 13.156-5.148t5.148-13.156v-713.84h128.125q12.012 0 16.587-10.868z" />
<glyph unicode="&#xf176;" glyph-name="long_arrow_up" horiz-adv-x="439" d="M437.57 568.998q-5.148-10.868-16.587-10.868h-128.125v-713.84q0-8.008-5.148-13.156t-13.156-5.148h-109.821q-8.008 0-13.156 5.148t-5.148 13.156v713.84h-128.125q-12.012 0-16.587 10.868t2.86 20.020l200.196 219.643q5.72 5.72 13.156 5.72 8.008 0 13.727-5.72l203.055-219.643q7.436-9.152 2.86-20.020z" />
<glyph unicode="&#xf179;" glyph-name="apple" horiz-adv-x="806" d="M796.778 156.023q-22.308-71.499-70.355-142.997-73.786-112.109-147.001-112.109-28.027 0-80.078 18.304-49.191 18.304-86.37 18.304-34.891 0-81.222-18.875-46.331-19.448-75.503-19.448-86.942 0-172.168 148.145-84.082 149.289-84.082 287.71 0 130.413 64.634 213.923 64.634 82.366 162.445 82.366 41.183 0 101.242-17.16 59.487-17.16 78.934-17.16 25.739 0 81.794 19.448 58.343 19.448 98.954 19.448 68.066 0 121.833-37.179 29.743-20.591 59.487-57.199-45.187-38.323-65.207-67.495-37.179-53.767-37.179-118.402 0-70.926 39.468-127.554t90.374-72.070zM581.711 826.964q0-34.891-16.587-77.79-17.16-42.899-53.195-78.934-30.887-30.887-61.774-41.183-21.164-6.292-59.487-9.723 1.716 85.226 44.615 147.001 42.327 61.203 142.997 84.654 0.572-1.716 1.43-6.292t1.43-6.292q0-2.288 0.286-5.72t0.286-5.72z" />
<glyph unicode="&#xf17a;" glyph-name="windows" horiz-adv-x="952" d="M390.095 275.568v-372.364l-390.095 53.767v318.597h390.095zM390.095 700.554v-376.939h-390.095v323.173zM951.786 275.568v-449.582l-518.793 71.499v378.083h518.793zM951.786 777.773v-454.158h-518.793v382.66z" />
<glyph unicode="&#xf17b;" glyph-name="android" horiz-adv-x="806" d="M281.989 574.717q9.152 0 15.729 6.577t6.577 15.729-6.577 15.729-15.729 6.577-15.444-6.577-6.292-15.729 6.292-15.729 15.444-6.577zM523.368 574.717q9.152 0 15.444 6.577t6.292 15.729-6.292 15.729-15.444 6.577-15.729-6.577-6.577-15.729 6.577-15.729 15.729-6.577zM58.915 469.472q24.023 0 41.183-17.16t17.16-41.183v-245.954q0-24.595-16.873-41.755t-41.469-17.16-41.755 17.16-17.16 41.755v245.954q0 24.023 17.16 41.183t41.755 17.16zM665.221 458.604v-380.943q0-26.312-18.304-44.615t-44.043-18.304h-42.899v-129.841q0-24.595-17.16-41.755t-41.755-17.16-41.755 17.16-17.16 41.755v129.841h-78.934v-129.841q0-24.595-17.16-41.755t-41.755-17.16q-24.023 0-41.183 17.16t-17.16 41.755l-0.572 129.841h-42.327q-26.312 0-44.615 18.304t-18.304 44.615v380.943h525.084zM532.52 690.259q61.203-31.46 97.81-87.8t36.607-123.263h-529.088q0 66.922 36.607 123.263t98.382 87.8l-40.611 74.93q-4.004 7.436 2.86 11.44 7.436 3.432 11.44-3.432l41.183-75.503q54.339 24.023 114.969 24.023t114.969-24.023l41.183 75.503q4.004 6.864 11.44 3.432 6.864-4.004 2.86-11.44zM805.357 411.129v-245.954q0-24.595-17.16-41.755t-41.755-17.16q-24.023 0-41.183 17.16t-17.16 41.755v245.954q0 24.595 17.16 41.469t41.183 16.873q24.595 0 41.755-16.873t17.16-41.469z" />
<glyph unicode="&#xf1c0;" glyph-name="database" d="M439.286 411.701q135.561 0 253.39 24.595t185.896 72.642v-97.238q0-39.468-58.915-73.214t-160.156-53.481-220.215-19.733-220.215 19.733-160.156 53.481-58.915 73.214v97.238q68.066-48.047 185.896-72.642t253.39-24.595zM439.286-27.585q135.561 0 253.39 24.595t185.896 72.642v-97.238q0-39.468-58.915-73.214t-160.156-53.481-220.215-19.733-220.215 19.733-160.156 53.481-58.915 73.214v97.238q68.066-48.047 185.896-72.642t253.39-24.595zM439.286 192.058q135.561 0 253.39 24.595t185.896 72.642v-97.238q0-39.468-58.915-73.214t-160.156-53.481-220.215-19.733-220.215 19.733-160.156 53.481-58.915 73.214v97.238q68.066-48.047 185.896-72.642t253.39-24.595zM439.286 850.987q118.973 0 220.215-19.733t160.156-53.481 58.915-73.214v-73.214q0-39.468-58.915-73.214t-160.156-53.481-220.215-19.733-220.215 19.733-160.156 53.481-58.915 73.214v73.214q0 39.468 58.915 73.214t160.156 53.481 220.215 19.733z" />
<glyph unicode="&#xf1e0;" glyph-name="uniF1E0" d="M695.536 265.272q76.074 0 129.556-53.481t53.481-129.556-53.481-129.556-129.556-53.481-129.556 53.481-53.481 129.556q0 6.864 1.144 19.448l-205.915 102.958q-52.622-49.191-124.693-49.191-76.074 0-129.556 53.481t-53.481 129.556 53.481 129.556 129.556 53.481q72.070 0 124.693-49.191l205.915 102.958q-1.144 12.583-1.144 19.448 0 76.074 53.481 129.556t129.556 53.481 129.556-53.481 53.481-129.556-53.481-129.556-129.556-53.481q-72.070 0-124.693 49.191l-205.915-102.958q1.144-12.583 1.144-19.448t-1.144-19.448l205.915-102.958q52.622 49.191 124.693 49.191z" />
<glyph unicode="&#xf1eb;" glyph-name="wifi" horiz-adv-x="1171" d="M585.715-20.149q-11.44 0-53.195 42.041t-41.755 53.481q0 18.304 35.749 30.887t59.201 12.583 59.201-12.583 35.749-30.887q0-11.44-41.755-53.481t-53.195-42.041zM740.152 134.859q-1.144 0-22.879 14.3t-58.057 28.599-73.501 14.3-73.501-14.3-57.77-28.599-23.166-14.3q-10.296 0-53.481 42.899t-43.185 53.195q0 7.436 5.72 13.156 44.615 44.043 112.109 69.211t133.273 25.168 133.273-25.168 112.109-69.211q5.72-5.72 5.72-13.156 0-10.296-43.185-53.195t-53.481-42.899zM896.304 290.44q-6.292 0-13.156 4.575-77.79 60.059-144.141 88.372t-153.293 28.314q-48.618 0-97.524-12.583t-85.226-30.316-64.92-35.464-45.187-30.316-17.731-12.583q-9.723 0-52.622 42.899t-42.899 53.195q0 6.864 5.72 12.583 75.503 75.503 183.036 117.258t217.355 41.755 217.355-41.755 183.036-117.258q5.72-5.72 5.72-12.583 0-10.296-42.899-53.195t-52.622-42.899zM1051.313 445.448q-6.292 0-12.583 5.148-102.386 89.802-212.494 135.275t-240.521 45.473-240.521-45.473-212.494-135.275q-6.292-5.148-12.583-5.148-9.723 0-52.909 42.899t-43.185 53.195q0 7.436 5.72 13.156 106.961 106.39 254.535 164.732t301.437 58.343 301.437-58.343 254.535-164.732q5.72-5.72 5.72-13.156 0-10.296-43.185-53.195t-52.909-42.899z" />
<glyph unicode="&#xf1ec;" glyph-name="_462" d="M219.643-27.585q0 30.316-21.45 51.765t-51.765 21.45-51.765-21.45-21.45-51.765 21.45-51.765 51.765-21.45 51.765 21.45 21.45 51.765zM439.286-27.585q0 30.316-21.45 51.765t-51.765 21.45-51.765-21.45-21.45-51.765 21.45-51.765 51.765-21.45 51.765 21.45 21.45 51.765zM219.643 192.058q0 30.316-21.45 51.765t-51.765 21.45-51.765-21.45-21.45-51.765 21.45-51.765 51.765-21.45 51.765 21.45 21.45 51.765zM658.929-27.585q0 30.316-21.45 51.765t-51.765 21.45-51.765-21.45-21.45-51.765 21.45-51.765 51.765-21.45 51.765 21.45 21.45 51.765zM439.286 192.058q0 30.316-21.45 51.765t-51.765 21.45-51.765-21.45-21.45-51.765 21.45-51.765 51.765-21.45 51.765 21.45 21.45 51.765zM219.643 411.701q0 30.316-21.45 51.765t-51.765 21.45-51.765-21.45-21.45-51.765 21.45-51.765 51.765-21.45 51.765 21.45 21.45 51.765zM658.929 192.058q0 30.316-21.45 51.765t-51.765 21.45-51.765-21.45-21.45-51.765 21.45-51.765 51.765-21.45 51.765 21.45 21.45 51.765zM439.286 411.701q0 30.316-21.45 51.765t-51.765 21.45-51.765-21.45-21.45-51.765 21.45-51.765 51.765-21.45 51.765 21.45 21.45 51.765zM878.572-27.585v219.643q0 29.743-21.735 51.479t-51.479 21.735-51.479-21.735-21.735-51.479v-219.643q0-29.743 21.735-51.479t51.479-21.735 51.479 21.735 21.735 51.479zM658.929 411.701q0 30.316-21.45 51.765t-51.765 21.45-51.765-21.45-21.45-51.765 21.45-51.765 51.765-21.45 51.765 21.45 21.45 51.765zM878.572 594.737v146.429q0 14.872-10.868 25.739t-25.739 10.868h-732.144q-14.872 0-25.739-10.868t-10.868-25.739v-146.429q0-14.872 10.868-25.739t25.739-10.868h732.144q14.872 0 25.739 10.868t10.868 25.739zM878.572 411.701q0 30.316-21.45 51.765t-51.765 21.45-51.765-21.45-21.45-51.765 21.45-51.765 51.765-21.45 51.765 21.45 21.45 51.765zM951.786 777.773v-878.572q0-29.743-21.735-51.479t-51.479-21.735h-805.357q-29.743 0-51.479 21.735t-21.735 51.479v878.572q0 29.743 21.735 51.479t51.479 21.735h805.357q29.743 0 51.479-21.735t21.735-51.479z" />
<glyph unicode="&#xf1fe;" glyph-name="area-chart" horiz-adv-x="1171" d="M1171.43-27.585v-73.214h-1171.43v878.572h73.214v-805.357h1098.215zM951.786 558.13l146.429-512.5h-951.786v329.465l256.25 329.465 329.465-329.465z" />
<glyph unicode="&#xf200;" glyph-name="_480" d="M439.286 341.919l312.305-312.305q-60.63-61.774-141.567-96.094t-170.738-34.32q-119.546 0-220.501 58.915t-159.87 159.87-58.915 220.501 58.915 220.501 159.87 159.87 220.501 58.915v-435.855zM546.247 338.487h442.146q0-89.802-34.32-170.738t-96.094-141.567zM951.786 411.701h-439.286v439.286q119.546 0 220.501-58.915t159.87-159.87 58.915-220.501z" />
<glyph unicode="&#xf201;" glyph-name="line-chart" horiz-adv-x="1171" d="M1171.43-27.585v-73.214h-1171.43v878.572h73.214v-805.357h1098.215zM1098.215 686.255v-248.814q0-12.012-11.154-16.873t-20.306 4.29l-69.211 69.211-362.068-362.068q-5.72-5.72-13.156-5.72t-13.156 5.72l-133.273 133.273-237.946-237.946-109.821 109.821 334.613 334.613q5.72 5.72 13.156 5.72t13.156-5.72l133.273-133.273 265.402 265.402-69.211 69.211q-9.152 9.152-4.29 20.306t16.873 11.154h248.814q8.008 0 13.156-5.148t5.148-13.156z" />
<glyph unicode="&#xf29c;" glyph-name="doubt" d="M503.349 164.603v-91.518q0-8.008-5.148-13.156t-13.156-5.148h-91.518q-8.008 0-13.156 5.148t-5.148 13.156v91.518q0 8.008 5.148 13.156t13.156 5.148h91.518q8.008 0 13.156-5.148t5.148-13.156zM649.778 448.308q0-28.599-8.579-51.479t-26.025-39.468-29.743-25.168-34.033-20.591q-18.304-10.296-26.597-16.016t-14.872-13.727-6.577-16.587v-18.304q0-8.008-5.148-13.156t-13.156-5.148h-91.518q-8.008 0-13.156 5.148t-5.148 13.156v38.895q0 20.020 6.006 36.893t13.727 27.17 22.308 20.306 23.452 14.585 25.454 12.012q30.316 14.3 42.899 24.595t12.583 28.027q0 24.023-24.881 40.897t-54.624 16.873q-32.031 0-54.339-15.444-16.587-11.44-45.759-47.475-5.148-6.864-14.3-6.864-6.292 0-10.868 3.432l-61.774 46.903q-5.72 4.004-6.864 11.44t2.86 13.156q69.782 109.821 199.624 109.821 73.786 0 136.419-51.193t62.632-122.691zM439.286 704.558q-74.359 0-142.139-29.171t-116.685-78.076-78.076-116.685-29.171-142.139 29.171-142.139 78.076-116.685 116.685-78.076 142.139-29.171 142.139 29.171 116.685 78.076 78.076 116.685 29.171 142.139-29.171 142.139-78.076 116.685-116.685 78.076-142.139 29.171zM878.572 338.487q0-119.546-58.915-220.501t-159.87-159.87-220.501-58.915-220.501 58.915-159.87 159.87-58.915 220.501 58.915 220.501 159.87 159.87 220.501 58.915 220.501-58.915 159.87-159.87 58.915-220.501z" />
<glyph unicode="&#xf2bb;" glyph-name="address-card" horiz-adv-x="1171" d="M585.715 204.070q0 36.607-5.148 67.209t-16.873 58.915-34.605 44.615-55.483 16.302q-3.432-2.288-17.16-10.296t-21.45-12.298-20.306-10.010-24.595-8.294-24.023-2.574-24.023 2.574-24.595 8.294-20.306 10.010-21.45 12.298-17.16 10.296q-32.603 0-55.483-16.302t-34.605-44.615-16.873-58.915-5.148-67.209 21.164-60.916 52.051-24.31h292.857q30.887 0 52.051 24.31t21.164 60.916zM495.913 501.503q0 53.767-38.037 91.804t-91.804 38.037-91.804-38.037-38.037-91.804 38.037-91.804 91.804-38.037 91.804 38.037 38.037 91.804zM1025.001 210.362v36.607q0 8.008-5.148 13.156t-13.156 5.148h-329.465q-8.008 0-13.156-5.148t-5.148-13.156v-36.607q0-8.008 5.148-13.156t13.156-5.148h329.465q8.008 0 13.156 5.148t5.148 13.156zM1025.001 359.078v32.031q0 8.579-6.006 14.585t-14.585 6.006h-324.888q-8.579 0-14.585-6.006t-6.006-14.585v-32.031q0-8.579 6.006-14.585t14.585-6.006h324.888q8.579 0 14.585 6.006t6.006 14.585zM1025.001 503.219v36.607q0 8.008-5.148 13.156t-13.156 5.148h-329.465q-8.008 0-13.156-5.148t-5.148-13.156v-36.607q0-8.008 5.148-13.156t13.156-5.148h329.465q8.008 0 13.156 5.148t5.148 13.156zM1171.43 686.255v-695.536q0-37.751-26.883-64.634t-64.634-26.883h-201.34v54.911q0 8.008-5.148 13.156t-13.156 5.148h-36.607q-8.008 0-13.156-5.148t-5.148-13.156v-54.911h-439.286v54.911q0 8.008-5.148 13.156t-13.156 5.148h-36.607q-8.008 0-13.156-5.148t-5.148-13.156v-54.911h-201.34q-37.751 0-64.634 26.883t-26.883 64.634v695.536q0 37.751 26.883 64.634t64.634 26.883h988.394q37.751 0 64.634-26.883t26.883-64.634z" />
<glyph unicode="&#xf2bc;" glyph-name="uniF2BC" horiz-adv-x="1171" d="M585.715 204.070q0-36.607-21.164-60.916t-52.051-24.31h-292.857q-30.887 0-52.051 24.31t-21.164 60.916 5.148 67.209 16.873 58.915 34.605 44.615 55.483 16.302q3.432-2.288 17.16-10.296t21.45-12.298 20.306-10.010 24.595-8.294 24.023-2.574 24.023 2.574 24.595 8.294 20.306 10.010 21.45 12.298 17.16 10.296q32.603 0 55.483-16.302t34.605-44.615 16.873-58.915 5.148-67.209zM495.913 501.503q0-53.767-38.037-91.804t-91.804-38.037-91.804 38.037-38.037 91.804 38.037 91.804 91.804 38.037 91.804-38.037 38.037-91.804zM1025.001 246.968v-36.607q0-8.008-5.148-13.156t-13.156-5.148h-329.465q-8.008 0-13.156 5.148t-5.148 13.156v36.607q0 8.008 5.148 13.156t13.156 5.148h329.465q8.008 0 13.156-5.148t5.148-13.156zM1025.001 391.109v-32.031q0-8.579-6.006-14.585t-14.585-6.006h-324.888q-8.579 0-14.585 6.006t-6.006 14.585v32.031q0 8.579 6.006 14.585t14.585 6.006h324.888q8.579 0 14.585-6.006t6.006-14.585zM1025.001 539.826v-36.607q0-8.008-5.148-13.156t-13.156-5.148h-329.465q-8.008 0-13.156 5.148t-5.148 13.156v36.607q0 8.008 5.148 13.156t13.156 5.148h329.465q8.008 0 13.156-5.148t5.148-13.156zM1098.215-9.282v695.536q0 7.436-5.434 12.87t-12.87 5.434h-988.394q-7.436 0-12.87-5.434t-5.434-12.87v-695.536q0-7.436 5.434-12.87t12.87-5.434h201.34v54.911q0 8.008 5.148 13.156t13.156 5.148h36.607q8.008 0 13.156-5.148t5.148-13.156v-54.911h439.286v54.911q0 8.008 5.148 13.156t13.156 5.148h36.607q8.008 0 13.156-5.148t5.148-13.156v-54.911h201.34q7.436 0 12.87 5.434t5.434 12.87zM1171.43 686.255v-695.536q0-37.751-26.883-64.634t-64.634-26.883h-988.394q-37.751 0-64.634 26.883t-26.883 64.634v695.536q0 37.751 26.883 64.634t64.634 26.883h988.394q37.751 0 64.634-26.883t26.883-64.634z" />
<glyph unicode="&#xf2c0;" glyph-name="uniF2C0" d="M686.957 402.549q26.883-8.008 51.193-21.735t50.907-41.755 45.473-66.065 31.46-98.382 12.583-135.275q0-88.086-57.199-150.718t-137.849-62.632h-488.477q-80.65 0-137.849 62.632t-57.199 150.718q0 74.93 12.583 135.275t31.46 98.382 45.473 66.065 50.907 41.755 51.193 21.735q-45.187 71.499-45.187 155.581 0 59.487 23.166 113.54t62.632 93.52 93.52 62.632 113.54 23.166 113.54-23.166 93.52-62.632 62.632-93.52 23.166-113.54q0-84.082-45.187-155.581zM439.286 777.773q-90.946 0-155.295-64.349t-64.349-155.295 64.349-155.295 155.295-64.349 155.295 64.349 64.349 155.295-64.349 155.295-155.295 64.349zM683.525-100.799q50.335 0 86.084 40.897t35.749 99.24q0 136.705-44.901 215.64t-128.983 82.938q-82.938-72.642-192.188-72.642t-192.188 72.642q-84.082-4.004-128.983-82.938t-44.901-215.64q0-58.343 35.749-99.24t86.084-40.897h488.477z" />
</font>
</defs>
</svg>
