<?xml version="1.0" standalone="no"?><!DOCTYPE svg PUBLIC "-//W3C//DTD SVG 1.1//EN" "http://www.w3.org/Graphics/SVG/1.1/DTD/svg11.dtd"><svg t="1521269625911" class="icon" style="" viewBox="0 0 1024 1024" version="1.1" xmlns="http://www.w3.org/2000/svg" p-id="3535" xmlns:xlink="http://www.w3.org/1999/xlink" width="200" height="200"><defs><style type="text/css"></style></defs><path d="M793.813333 656.853333a21.333333 21.333333 0 0 0-30.08 0l-70.4 70.4-70.186666-70.186666a21.333333 21.333333 0 0 0-30.08 30.08l70.186666 70.186666-70.186666 70.186667a21.333333 21.333333 0 1 0 30.08 30.08l70.186666-70.186667 70.186667 70.186667a21.333333 21.333333 0 0 0 30.08-30.08l-70.186667-70.186667 70.186667-70.186666a21.333333 21.333333 0 0 0 0.213333-30.293334z" fill="#ff657b" p-id="3536"></path><path d="M693.333333 501.333333a256 256 0 1 0 256 256 256 256 0 0 0-256-256z m0 469.333334a213.333333 213.333333 0 1 1 213.333334-213.333334 213.333333 213.333333 0 0 1-213.333334 213.333334z" fill="#ff657b" p-id="3537"></path><path d="M245.333333 738.773333a21.333333 21.333333 0 0 0 0 42.666667h106.666667a21.333333 21.333333 0 0 0 0-42.666667h-106.666667zM416 610.773333a21.333333 21.333333 0 0 0-21.333333-21.333333h-149.333334a21.333333 21.333333 0 0 0 0 42.666667h149.333334a21.333333 21.333333 0 0 0 21.333333-21.333334zM629.333333 461.44a21.333333 21.333333 0 0 0-21.333333-21.333333h-362.666667a21.333333 21.333333 0 0 0 0 42.666666h362.666667a21.333333 21.333333 0 0 0 21.333333-21.333333z" fill="#ff657b" p-id="3538"></path><path d="M458.666667 930.773333h-256a85.333333 85.333333 0 0 1-82.56-88.106666V333.44h768v208.853333a21.333333 21.333333 0 1 0 42.666666 0V202.666667a128 128 0 0 0-130.773333-125.226667h-82.56V32a21.333333 21.333333 0 0 0-42.666667 0v45.44h-341.333333V32a21.333333 21.333333 0 0 0-42.666667 0v45.44H202.666667A123.733333 123.733333 0 0 0 77.44 202.666667v640a128 128 0 0 0 125.226667 130.773333h256a21.333333 21.333333 0 0 0 0-42.666667zM120.106667 202.666667A80.853333 80.853333 0 0 1 202.666667 120.106667h88.106666v18.56a21.333333 21.333333 0 0 0 42.666667 0v-18.56h341.333333v18.56a21.333333 21.333333 0 0 0 42.666667 0v-18.56h82.56a85.333333 85.333333 0 0 1 88.106667 82.56v88.106666h-768V202.666667z" fill="#ff657b" p-id="3539"></path></svg>